<svg xmlns="http://www.w3.org/2000/svg" width="400" height="130" viewBox="0 0 400 130" preserveAspectRatio="xMidYMid slice"><rect width="400" height="130" fill="#8C93C4"/><rect width="400" height="65" fill="#B7A9CF" opacity=".6"/><path d="M0 80.6 L80.0 49.4 L136.0 65.0 L220.00000000000003 23.4 L300.0 59.800000000000004 L360.0 44.2 L400 65.0 V85.8 H0Z" fill="#5E6A9E"/><path d="M196.0 36.400000000000006 L220.00000000000003 23.4 L244.0 39.0 L227.99999999999997 35.1 L216.0 40.3Z" fill="#fff"/><rect y="83" width="400" height="26" fill="#3F4C80"/><path d="M0 104.0 Q120.0 93.6 240.0 104.0 T400 101.4 V130 H0Z" fill="#F3F5FA"/><path d="M32.0 65.8 L39.0 76.8 H36.0 L42.0 85.8 H22.0 L28.0 76.8 H25.0Z" fill="#2A3A5C"/><path d="M32.0 65.8 L35.5 71.3 L28.5 71.3Z" fill="#fff" opacity=".85"/><path d="M56.00000000000001 64.4 L64.4 77.60000000000001 H60.800000000000004 L68.0 88.4 H44.00000000000001 L51.20000000000001 77.60000000000001 H47.60000000000001Z" fill="#2A3A5C"/><path d="M56.00000000000001 64.4 L60.20000000000001 71.0 L51.800000000000004 71.0Z" fill="#fff" opacity=".85"/><path d="M344.0 63.8 L351.7 75.89999999999999 H348.4 L355.0 85.8 H333.0 L339.6 75.89999999999999 H336.3Z" fill="#2A3A5C"/><path d="M344.0 63.8 L347.85 69.85 L340.15 69.85Z" fill="#fff" opacity=".85"/><path d="M372.0 65.0 L381.1 79.3 H377.2 L385.0 91.0 H359.0 L366.8 79.3 H362.9Z" fill="#2A3A5C"/><path d="M372.0 65.0 L376.55 72.15 L367.45 72.15Z" fill="#fff" opacity=".85"/><g transform="translate(96 94)"><rect width="26" height="16" fill="#5A3E34"/><path d="M-4 1 L13 -10 L30 1Z" fill="#fff"/><rect x="5" y="5" width="5" height="5" fill="#F6CC7A"/><rect x="16" y="5" width="5" height="5" fill="#F6CC7A"/></g><g transform="translate(144 94)"><rect width="26" height="16" fill="#5A3E34"/><path d="M-4 1 L13 -10 L30 1Z" fill="#fff"/><rect x="5" y="5" width="5" height="5" fill="#F6CC7A"/><rect x="16" y="5" width="5" height="5" fill="#F6CC7A"/></g><g transform="translate(280 94)"><rect width="26" height="16" fill="#5A3E34"/><path d="M-4 1 L13 -10 L30 1Z" fill="#fff"/><rect x="5" y="5" width="5" height="5" fill="#F6CC7A"/><rect x="16" y="5" width="5" height="5" fill="#F6CC7A"/></g></svg>
