<svg xmlns="http://www.w3.org/2000/svg" viewBox="0 0 220 260"><path d="M36 153Q25 165 20 181L41 193L53 172Z" fill="#5b6774" stroke="#4A3A36" stroke-width="3.5" stroke-linecap="round" stroke-linejoin="round"/><path d="M23 177L44 187L41 194L20 183Z" fill="#aa7371" stroke="#4A3A36" stroke-width="2.5" stroke-linecap="round" stroke-linejoin="round"/><g transform="translate(220 0) scale(-1 1)"><path d="M36 153Q25 165 20 181L41 193L53 172Z" fill="#5b6774" stroke="#4A3A36" stroke-width="3.5" stroke-linecap="round" stroke-linejoin="round"/><path d="M23 177L44 187L41 194L20 183Z" fill="#aa7371" stroke="#4A3A36" stroke-width="2.5" stroke-linecap="round" stroke-linejoin="round"/></g><path d="M33 153 Q110 217 187 153 L184 229 Q151 242 110 242 Q69 242 36 229 Z" fill="#5b6774" stroke="#4A3A36" stroke-width="4" stroke-linecap="round" stroke-linejoin="round"/><path d="M76 181L83 202H137L144 181 M76 197H144L158 234Q110 247 62 234Z" fill="#e9dbc2" stroke="#4A3A36" stroke-width="3" stroke-linecap="round" stroke-linejoin="round"/><path d="M85 212h49v17H85Z" fill="#aa7371" stroke="#4A3A36" stroke-width="2" stroke-linecap="round" stroke-linejoin="round"/><defs><clipPath id="clip-cozy-04"><path d="M45 202Q110 217 176 202L176 232Q110 247 44 232Z" fill="#fff" stroke="#4A3A36" stroke-width="0" stroke-linecap="round" stroke-linejoin="round"/></clipPath></defs><g clip-path="url(#clip-cozy-04)"><g transform="translate(-86 -3) scale(1)"><path d="M140 221 Q132 200 158 201 Q160 219 140 221Z" fill="#e9dbc2" stroke="#4A3A36" stroke-width="1.3" stroke-linecap="round" stroke-linejoin="round"/><path d="M141 220l12 -14" fill="none" stroke="#4A3A36" stroke-width="1" stroke-linecap="round" stroke-linejoin="round"/></g><g transform="translate(-60 12) scale(1)"><path d="M140 221 Q132 200 158 201 Q160 219 140 221Z" fill="#e9dbc2" stroke="#4A3A36" stroke-width="1.3" stroke-linecap="round" stroke-linejoin="round"/><path d="M141 220l12 -14" fill="none" stroke="#4A3A36" stroke-width="1" stroke-linecap="round" stroke-linejoin="round"/></g><g transform="translate(-32 -3) scale(1)"><path d="M140 221 Q132 200 158 201 Q160 219 140 221Z" fill="#e9dbc2" stroke="#4A3A36" stroke-width="1.3" stroke-linecap="round" stroke-linejoin="round"/><path d="M141 220l12 -14" fill="none" stroke="#4A3A36" stroke-width="1" stroke-linecap="round" stroke-linejoin="round"/></g><g transform="translate(-4 12) scale(1)"><path d="M140 221 Q132 200 158 201 Q160 219 140 221Z" fill="#e9dbc2" stroke="#4A3A36" stroke-width="1.3" stroke-linecap="round" stroke-linejoin="round"/><path d="M141 220l12 -14" fill="none" stroke="#4A3A36" stroke-width="1" stroke-linecap="round" stroke-linejoin="round"/></g><g transform="translate(15 -3) scale(1)"><path d="M140 221 Q132 200 158 201 Q160 219 140 221Z" fill="#e9dbc2" stroke="#4A3A36" stroke-width="1.3" stroke-linecap="round" stroke-linejoin="round"/><path d="M141 220l12 -14" fill="none" stroke="#4A3A36" stroke-width="1" stroke-linecap="round" stroke-linejoin="round"/></g></g><path d="M140 221 Q132 200 158 201 Q160 219 140 221Z" fill="#aa7371" stroke="#4A3A36" stroke-width="1.3" stroke-linecap="round" stroke-linejoin="round"/><path d="M141 220l12 -14" fill="none" stroke="#4A3A36" stroke-width="1" stroke-linecap="round" stroke-linejoin="round"/><path d="M40 230Q110 251 180 230" fill="none" stroke="#4A3A36" stroke-width="2.5" stroke-linecap="round" stroke-linejoin="round"/></svg>