<svg xmlns="http://www.w3.org/2000/svg" viewBox="0 0 220 260"><path d="M36 153Q25 165 20 181L41 193L53 172Z" fill="#5d7980" stroke="#4A3A36" stroke-width="3.5" stroke-linecap="round" stroke-linejoin="round"/><path d="M23 177L44 187L41 194L20 183Z" fill="#bf7f68" stroke="#4A3A36" stroke-width="2.5" stroke-linecap="round" stroke-linejoin="round"/><g transform="translate(220 0) scale(-1 1)"><path d="M36 153Q25 165 20 181L41 193L53 172Z" fill="#5d7980" stroke="#4A3A36" stroke-width="3.5" stroke-linecap="round" stroke-linejoin="round"/><path d="M23 177L44 187L41 194L20 183Z" fill="#bf7f68" stroke="#4A3A36" stroke-width="2.5" stroke-linecap="round" stroke-linejoin="round"/></g><path d="M33 153 Q110 217 187 153 L184 229 Q151 242 110 242 Q69 242 36 229 Z" fill="#5d7980" stroke="#4A3A36" stroke-width="4" stroke-linecap="round" stroke-linejoin="round"/><path d="M44 190L77 205V237 M176 190L143 205V237" fill="none" stroke="#e1d9bd" stroke-width="6" stroke-linecap="round" stroke-linejoin="round"/><path d="M110 192V237" fill="none" stroke="#bf7f68" stroke-width="3" stroke-linecap="round" stroke-linejoin="round"/><defs><clipPath id="clip-retro-03"><path d="M45 202Q110 217 176 202L176 232Q110 247 44 232Z" fill="#fff" stroke="#4A3A36" stroke-width="0" stroke-linecap="round" stroke-linejoin="round"/></clipPath></defs><g clip-path="url(#clip-retro-03)"><path d="M60 202h31v22H60Z" fill="#bf7f68" stroke="#4A3A36" stroke-width="2" stroke-linecap="round" stroke-linejoin="round"/><circle cx="70" cy="213" r="4" fill="#e1d9bd" stroke="#4A3A36" stroke-width="1"/><circle cx="82" cy="213" r="4" fill="#e1d9bd" stroke="#4A3A36" stroke-width="1"/></g><g transform="translate(147 211) scale(0.8)"><path d="M0 -10 L3 -3 L10 -3 L5 2 L7 10 L0 6 L-7 10 L-5 2 L-10 -3 L-3 -3Z" fill="#bf7f68" stroke="#4A3A36" stroke-width="1.2" stroke-linecap="round" stroke-linejoin="round"/></g><path d="M40 230Q110 251 180 230" fill="none" stroke="#4A3A36" stroke-width="2.5" stroke-linecap="round" stroke-linejoin="round"/></svg>